<svg xmlns="http://www.w3.org/2000/svg" viewBox="0 0 602 969" width="602" height="969">
<style>text { font-family: -apple-system, BlinkMacSystemFont, "Segoe UI", Helvetica, Arial, sans-serif; }</style>
<rect width="602" height="969" fill="white"/>
<rect x="15" y="15" width="80" height="20" rx="9" fill="#4A90D9"/>
<text x="55" y="25.0" text-anchor="middle" dominant-baseline="middle" font-size="11" font-weight="bold" fill="white">Base</text>
<rect x="15.0" y="68.7" width="44" height="44" rx="5" fill="#E8E8E8" stroke="#AAAAAA" stroke-width="1"/>
<text x="37.0" y="90.7" text-anchor="middle" dominant-baseline="middle" font-size="10" fill="#333333">Q</text>
<rect x="59.0" y="57.3" width="44" height="44" rx="5" fill="#E8E8E8" stroke="#AAAAAA" stroke-width="1"/>
<text x="81.0" y="79.3" text-anchor="middle" dominant-baseline="middle" font-size="10" fill="#333333">W</text>
<rect x="103.0" y="52.0" width="44" height="44" rx="5" fill="#E8E8E8" stroke="#AAAAAA" stroke-width="1"/>
<text x="125.0" y="74.0" text-anchor="middle" dominant-baseline="middle" font-size="10" fill="#333333">E</text>
<rect x="147.0" y="57.3" width="44" height="44" rx="5" fill="#E8E8E8" stroke="#AAAAAA" stroke-width="1"/>
<text x="169.0" y="79.3" text-anchor="middle" dominant-baseline="middle" font-size="10" fill="#333333">R</text>
<rect x="191.0" y="63.0" width="44" height="44" rx="5" fill="#E8E8E8" stroke="#AAAAAA" stroke-width="1"/>
<text x="213.0" y="85.0" text-anchor="middle" dominant-baseline="middle" font-size="10" fill="#333333">T</text>
<rect x="367.0" y="63.0" width="44" height="44" rx="5" fill="#E8E8E8" stroke="#AAAAAA" stroke-width="1"/>
<text x="389.0" y="85.0" text-anchor="middle" dominant-baseline="middle" font-size="10" fill="#333333">Y</text>
<rect x="411.0" y="57.3" width="44" height="44" rx="5" fill="#E8E8E8" stroke="#AAAAAA" stroke-width="1"/>
<text x="433.0" y="79.3" text-anchor="middle" dominant-baseline="middle" font-size="10" fill="#333333">U</text>
<rect x="455.0" y="52.0" width="44" height="44" rx="5" fill="#E8E8E8" stroke="#AAAAAA" stroke-width="1"/>
<text x="477.0" y="74.0" text-anchor="middle" dominant-baseline="middle" font-size="10" fill="#333333">I</text>
<rect x="499.0" y="57.3" width="44" height="44" rx="5" fill="#E8E8E8" stroke="#AAAAAA" stroke-width="1"/>
<text x="521.0" y="79.3" text-anchor="middle" dominant-baseline="middle" font-size="10" fill="#333333">O</text>
<rect x="543.0" y="68.7" width="44" height="44" rx="5" fill="#E8E8E8" stroke="#AAAAAA" stroke-width="1"/>
<text x="565.0" y="90.7" text-anchor="middle" dominant-baseline="middle" font-size="10" fill="#333333">P</text>
<rect x="15.0" y="112.7" width="44" height="44" rx="5" fill="#C2D9F5" stroke="#7AABDE" stroke-width="1"/>
<text x="37.0" y="130.3" text-anchor="middle" dominant-baseline="middle" font-size="10" fill="#1A3A5C">A</text>
<text x="37.0" y="144.4" text-anchor="middle" dominant-baseline="middle" font-size="8" fill="#1A3A5C" opacity="0.7">⇧ hold</text>
<rect x="59.0" y="101.3" width="44" height="44" rx="5" fill="#C2D9F5" stroke="#7AABDE" stroke-width="1"/>
<text x="81.0" y="118.9" text-anchor="middle" dominant-baseline="middle" font-size="10" fill="#1A3A5C">S</text>
<text x="81.0" y="133.0" text-anchor="middle" dominant-baseline="middle" font-size="8" fill="#1A3A5C" opacity="0.7">⌃ hold</text>
<rect x="103.0" y="96.0" width="44" height="44" rx="5" fill="#C2D9F5" stroke="#7AABDE" stroke-width="1"/>
<text x="125.0" y="113.6" text-anchor="middle" dominant-baseline="middle" font-size="10" fill="#1A3A5C">D</text>
<text x="125.0" y="127.7" text-anchor="middle" dominant-baseline="middle" font-size="8" fill="#1A3A5C" opacity="0.7">⌘ hold</text>
<rect x="147.0" y="101.3" width="44" height="44" rx="5" fill="#C2D9F5" stroke="#7AABDE" stroke-width="1"/>
<text x="169.0" y="118.9" text-anchor="middle" dominant-baseline="middle" font-size="10" fill="#1A3A5C">F</text>
<text x="169.0" y="133.0" text-anchor="middle" dominant-baseline="middle" font-size="8" fill="#1A3A5C" opacity="0.7">⌥ hold</text>
<rect x="191.0" y="107.0" width="44" height="44" rx="5" fill="#E8E8E8" stroke="#AAAAAA" stroke-width="1"/>
<text x="213.0" y="129.0" text-anchor="middle" dominant-baseline="middle" font-size="10" fill="#333333">G</text>
<rect x="367.0" y="107.0" width="44" height="44" rx="5" fill="#E8E8E8" stroke="#AAAAAA" stroke-width="1"/>
<text x="389.0" y="129.0" text-anchor="middle" dominant-baseline="middle" font-size="10" fill="#333333">H</text>
<rect x="411.0" y="101.3" width="44" height="44" rx="5" fill="#C2D9F5" stroke="#7AABDE" stroke-width="1"/>
<text x="433.0" y="118.9" text-anchor="middle" dominant-baseline="middle" font-size="10" fill="#1A3A5C">J</text>
<text x="433.0" y="133.0" text-anchor="middle" dominant-baseline="middle" font-size="8" fill="#1A3A5C" opacity="0.7">⌥ hold</text>
<rect x="455.0" y="96.0" width="44" height="44" rx="5" fill="#C2D9F5" stroke="#7AABDE" stroke-width="1"/>
<text x="477.0" y="113.6" text-anchor="middle" dominant-baseline="middle" font-size="10" fill="#1A3A5C">K</text>
<text x="477.0" y="127.7" text-anchor="middle" dominant-baseline="middle" font-size="8" fill="#1A3A5C" opacity="0.7">⌘ hold</text>
<rect x="499.0" y="101.3" width="44" height="44" rx="5" fill="#C2D9F5" stroke="#7AABDE" stroke-width="1"/>
<text x="521.0" y="118.9" text-anchor="middle" dominant-baseline="middle" font-size="10" fill="#1A3A5C">L</text>
<text x="521.0" y="133.0" text-anchor="middle" dominant-baseline="middle" font-size="8" fill="#1A3A5C" opacity="0.7">⌃ hold</text>
<rect x="543.0" y="112.7" width="44" height="44" rx="5" fill="#C2D9F5" stroke="#7AABDE" stroke-width="1"/>
<text x="565.0" y="130.3" text-anchor="middle" dominant-baseline="middle" font-size="10" fill="#1A3A5C">;</text>
<text x="565.0" y="144.4" text-anchor="middle" dominant-baseline="middle" font-size="8" fill="#1A3A5C" opacity="0.7">⇧ hold</text>
<rect x="15.0" y="156.7" width="44" height="44" rx="5" fill="#E8E8E8" stroke="#AAAAAA" stroke-width="1"/>
<text x="37.0" y="178.7" text-anchor="middle" dominant-baseline="middle" font-size="10" fill="#333333">Z</text>
<rect x="59.0" y="145.3" width="44" height="44" rx="5" fill="#E8E8E8" stroke="#AAAAAA" stroke-width="1"/>
<text x="81.0" y="167.3" text-anchor="middle" dominant-baseline="middle" font-size="10" fill="#333333">X</text>
<rect x="103.0" y="140.0" width="44" height="44" rx="5" fill="#E8E8E8" stroke="#AAAAAA" stroke-width="1"/>
<text x="125.0" y="162.0" text-anchor="middle" dominant-baseline="middle" font-size="10" fill="#333333">C</text>
<rect x="147.0" y="145.3" width="44" height="44" rx="5" fill="#E8E8E8" stroke="#AAAAAA" stroke-width="1"/>
<text x="169.0" y="167.3" text-anchor="middle" dominant-baseline="middle" font-size="10" fill="#333333">V</text>
<rect x="191.0" y="151.0" width="44" height="44" rx="5" fill="#E8E8E8" stroke="#AAAAAA" stroke-width="1"/>
<text x="213.0" y="173.0" text-anchor="middle" dominant-baseline="middle" font-size="10" fill="#333333">B</text>
<rect x="367.0" y="151.0" width="44" height="44" rx="5" fill="#E8E8E8" stroke="#AAAAAA" stroke-width="1"/>
<text x="389.0" y="173.0" text-anchor="middle" dominant-baseline="middle" font-size="10" fill="#333333">N</text>
<rect x="411.0" y="145.3" width="44" height="44" rx="5" fill="#E8E8E8" stroke="#AAAAAA" stroke-width="1"/>
<text x="433.0" y="167.3" text-anchor="middle" dominant-baseline="middle" font-size="10" fill="#333333">M</text>
<rect x="455.0" y="140.0" width="44" height="44" rx="5" fill="#E8E8E8" stroke="#AAAAAA" stroke-width="1"/>
<text x="477.0" y="162.0" text-anchor="middle" dominant-baseline="middle" font-size="10" fill="#333333">,</text>
<rect x="499.0" y="145.3" width="44" height="44" rx="5" fill="#E8E8E8" stroke="#AAAAAA" stroke-width="1"/>
<text x="521.0" y="167.3" text-anchor="middle" dominant-baseline="middle" font-size="10" fill="#333333">.</text>
<rect x="543.0" y="156.7" width="44" height="44" rx="5" fill="#E8E8E8" stroke="#AAAAAA" stroke-width="1"/>
<text x="565.0" y="178.7" text-anchor="middle" dominant-baseline="middle" font-size="10" fill="#333333">/</text>
<rect x="191.0" y="195.0" width="44" height="44" rx="5" fill="#FFD78A" stroke="#C89B30" stroke-width="1"/>
<text x="213.0" y="217.0" text-anchor="middle" dominant-baseline="middle" font-size="10" fill="#5A3D00">▼ Sym</text>
<rect x="235.0" y="199.4" width="44" height="44" rx="5" fill="#E8E8E8" stroke="#AAAAAA" stroke-width="1"/>
<text x="257.0" y="221.4" text-anchor="middle" dominant-baseline="middle" font-size="10" fill="#333333">Space</text>
<rect x="323.0" y="199.4" width="44" height="44" rx="5" fill="#E8E8E8" stroke="#AAAAAA" stroke-width="1"/>
<text x="345.0" y="221.4" text-anchor="middle" dominant-baseline="middle" font-size="10" fill="#333333">Enter</text>
<rect x="367.0" y="195.0" width="44" height="44" rx="5" fill="#FFD78A" stroke="#C89B30" stroke-width="1"/>
<text x="389.0" y="217.0" text-anchor="middle" dominant-baseline="middle" font-size="10" fill="#5A3D00">▼ Nav</text>
<line x1="125.0" y1="118.0" x2="477.0" y2="118.0" stroke="#888888" stroke-width="1.5" stroke-dasharray="3,2" opacity="0.6"/>
<rect x="283.0" y="97.0" width="36" height="14" rx="3" fill="white" stroke="#888888" stroke-width="1" opacity="0.9"/>
<text x="301.0" y="104.0" text-anchor="middle" dominant-baseline="middle" font-size="8" fill="#888888" font-weight="bold">Esc</text>
<line x1="37.0" y1="134.7" x2="565.0" y2="134.7" stroke="#888888" stroke-width="1.5" stroke-dasharray="3,2" opacity="0.6"/>
<rect x="283.0" y="113.7" width="36" height="14" rx="3" fill="white" stroke="#888888" stroke-width="1" opacity="0.9"/>
<text x="301.0" y="120.7" text-anchor="middle" dominant-baseline="middle" font-size="8" fill="#888888" font-weight="bold">CapsLk</text>
<line x1="125.0" y1="74.0" x2="477.0" y2="74.0" stroke="#888888" stroke-width="1.5" stroke-dasharray="3,2" opacity="0.6"/>
<rect x="283.0" y="53.0" width="36" height="14" rx="3" fill="white" stroke="#888888" stroke-width="1" opacity="0.9"/>
<text x="301.0" y="60.0" text-anchor="middle" dominant-baseline="middle" font-size="8" fill="#888888" font-weight="bold">Lang</text>
<rect x="15" y="257" width="80" height="20" rx="9" fill="#E67E22"/>
<text x="55" y="267.0" text-anchor="middle" dominant-baseline="middle" font-size="11" font-weight="bold" fill="white">Symbols</text>
<rect x="15.0" y="310.7" width="44" height="44" rx="5" fill="#E8E8E8" stroke="#AAAAAA" stroke-width="1"/>
<text x="37.0" y="332.7" text-anchor="middle" dominant-baseline="middle" font-size="10" fill="#333333">!</text>
<rect x="59.0" y="299.3" width="44" height="44" rx="5" fill="#E8E8E8" stroke="#AAAAAA" stroke-width="1"/>
<text x="81.0" y="321.3" text-anchor="middle" dominant-baseline="middle" font-size="10" fill="#333333">@</text>
<rect x="103.0" y="294.0" width="44" height="44" rx="5" fill="#E8E8E8" stroke="#AAAAAA" stroke-width="1"/>
<text x="125.0" y="316.0" text-anchor="middle" dominant-baseline="middle" font-size="10" fill="#333333">#</text>
<rect x="147.0" y="299.3" width="44" height="44" rx="5" fill="#E8E8E8" stroke="#AAAAAA" stroke-width="1"/>
<text x="169.0" y="321.3" text-anchor="middle" dominant-baseline="middle" font-size="10" fill="#333333">$</text>
<rect x="191.0" y="305.0" width="44" height="44" rx="5" fill="#E8E8E8" stroke="#AAAAAA" stroke-width="1"/>
<text x="213.0" y="327.0" text-anchor="middle" dominant-baseline="middle" font-size="10" fill="#333333">%</text>
<rect x="367.0" y="305.0" width="44" height="44" rx="5" fill="#F3F3F3" stroke="#DDDDDD" stroke-width="1"/>
<rect x="411.0" y="299.3" width="44" height="44" rx="5" fill="#E8E8E8" stroke="#AAAAAA" stroke-width="1"/>
<text x="433.0" y="321.3" text-anchor="middle" dominant-baseline="middle" font-size="10" fill="#333333">&amp;</text>
<rect x="455.0" y="294.0" width="44" height="44" rx="5" fill="#E8E8E8" stroke="#AAAAAA" stroke-width="1"/>
<text x="477.0" y="316.0" text-anchor="middle" dominant-baseline="middle" font-size="10" fill="#333333">*</text>
<rect x="499.0" y="299.3" width="44" height="44" rx="5" fill="#E8E8E8" stroke="#AAAAAA" stroke-width="1"/>
<text x="521.0" y="321.3" text-anchor="middle" dominant-baseline="middle" font-size="10" fill="#333333">(</text>
<rect x="543.0" y="310.7" width="44" height="44" rx="5" fill="#E8E8E8" stroke="#AAAAAA" stroke-width="1"/>
<text x="565.0" y="332.7" text-anchor="middle" dominant-baseline="middle" font-size="10" fill="#333333">)</text>
<rect x="15.0" y="354.7" width="44" height="44" rx="5" fill="#C2D9F5" stroke="#7AABDE" stroke-width="1"/>
<text x="37.0" y="372.3" text-anchor="middle" dominant-baseline="middle" font-size="10" fill="#1A3A5C">Esc</text>
<text x="37.0" y="386.4" text-anchor="middle" dominant-baseline="middle" font-size="8" fill="#1A3A5C" opacity="0.7">⇧ hold</text>
<rect x="59.0" y="343.3" width="44" height="44" rx="5" fill="#E8E8E8" stroke="#AAAAAA" stroke-width="1"/>
<text x="81.0" y="365.3" text-anchor="middle" dominant-baseline="middle" font-size="10" fill="#333333">⌃</text>
<rect x="103.0" y="338.0" width="44" height="44" rx="5" fill="#E8E8E8" stroke="#AAAAAA" stroke-width="1"/>
<text x="125.0" y="360.0" text-anchor="middle" dominant-baseline="middle" font-size="10" fill="#333333">⌘</text>
<rect x="147.0" y="343.3" width="44" height="44" rx="5" fill="#E8E8E8" stroke="#AAAAAA" stroke-width="1"/>
<text x="169.0" y="365.3" text-anchor="middle" dominant-baseline="middle" font-size="10" fill="#333333">⌥</text>
<rect x="191.0" y="349.0" width="44" height="44" rx="5" fill="#E8E8E8" stroke="#AAAAAA" stroke-width="1"/>
<text x="213.0" y="371.0" text-anchor="middle" dominant-baseline="middle" font-size="10" fill="#333333">^</text>
<rect x="367.0" y="349.0" width="44" height="44" rx="5" fill="#E8E8E8" stroke="#AAAAAA" stroke-width="1"/>
<text x="389.0" y="371.0" text-anchor="middle" dominant-baseline="middle" font-size="10" fill="#333333">−</text>
<rect x="411.0" y="343.3" width="44" height="44" rx="5" fill="#C2D9F5" stroke="#7AABDE" stroke-width="1"/>
<text x="433.0" y="360.9" text-anchor="middle" dominant-baseline="middle" font-size="10" fill="#1A3A5C">=</text>
<text x="433.0" y="375.0" text-anchor="middle" dominant-baseline="middle" font-size="8" fill="#1A3A5C" opacity="0.7">⌥ hold</text>
<rect x="455.0" y="338.0" width="44" height="44" rx="5" fill="#C2D9F5" stroke="#7AABDE" stroke-width="1"/>
<text x="477.0" y="355.6" text-anchor="middle" dominant-baseline="middle" font-size="10" fill="#1A3A5C">{</text>
<text x="477.0" y="369.7" text-anchor="middle" dominant-baseline="middle" font-size="8" fill="#1A3A5C" opacity="0.7">⌘ hold</text>
<rect x="499.0" y="343.3" width="44" height="44" rx="5" fill="#C2D9F5" stroke="#7AABDE" stroke-width="1"/>
<text x="521.0" y="360.9" text-anchor="middle" dominant-baseline="middle" font-size="10" fill="#1A3A5C">}</text>
<text x="521.0" y="375.0" text-anchor="middle" dominant-baseline="middle" font-size="8" fill="#1A3A5C" opacity="0.7">⌃ hold</text>
<rect x="543.0" y="354.7" width="44" height="44" rx="5" fill="#C2D9F5" stroke="#7AABDE" stroke-width="1"/>
<text x="565.0" y="372.3" text-anchor="middle" dominant-baseline="middle" font-size="10" fill="#1A3A5C">'</text>
<text x="565.0" y="386.4" text-anchor="middle" dominant-baseline="middle" font-size="8" fill="#1A3A5C" opacity="0.7">⇧ hold</text>
<rect x="15.0" y="398.7" width="44" height="44" rx="5" fill="#E8E8E8" stroke="#AAAAAA" stroke-width="1"/>
<text x="37.0" y="420.7" text-anchor="middle" dominant-baseline="middle" font-size="10" fill="#333333">Tab</text>
<rect x="59.0" y="387.3" width="44" height="44" rx="5" fill="#F3F3F3" stroke="#DDDDDD" stroke-width="1"/>
<rect x="103.0" y="382.0" width="44" height="44" rx="5" fill="#F3F3F3" stroke="#DDDDDD" stroke-width="1"/>
<rect x="147.0" y="387.3" width="44" height="44" rx="5" fill="#F3F3F3" stroke="#DDDDDD" stroke-width="1"/>
<rect x="191.0" y="393.0" width="44" height="44" rx="5" fill="#A8DFA8" stroke="#5A9E5A" stroke-width="1"/>
<text x="213.0" y="415.0" text-anchor="middle" dominant-baseline="middle" font-size="10" fill="#1A4A1A">Boot</text>
<rect x="367.0" y="393.0" width="44" height="44" rx="5" fill="#F3F3F3" stroke="#DDDDDD" stroke-width="1"/>
<rect x="411.0" y="387.3" width="44" height="44" rx="5" fill="#E8E8E8" stroke="#AAAAAA" stroke-width="1"/>
<text x="433.0" y="409.3" text-anchor="middle" dominant-baseline="middle" font-size="10" fill="#333333">Bksp</text>
<rect x="455.0" y="382.0" width="44" height="44" rx="5" fill="#E8E8E8" stroke="#AAAAAA" stroke-width="1"/>
<text x="477.0" y="404.0" text-anchor="middle" dominant-baseline="middle" font-size="10" fill="#333333">[</text>
<rect x="499.0" y="387.3" width="44" height="44" rx="5" fill="#E8E8E8" stroke="#AAAAAA" stroke-width="1"/>
<text x="521.0" y="409.3" text-anchor="middle" dominant-baseline="middle" font-size="10" fill="#333333">]</text>
<rect x="543.0" y="398.7" width="44" height="44" rx="5" fill="#E8E8E8" stroke="#AAAAAA" stroke-width="1"/>
<text x="565.0" y="420.7" text-anchor="middle" dominant-baseline="middle" font-size="10" fill="#333333">\</text>
<rect x="191.0" y="437.0" width="44" height="44" rx="5" fill="#F3F3F3" stroke="#DDDDDD" stroke-width="1"/>
<rect x="235.0" y="441.4" width="44" height="44" rx="5" fill="#F3F3F3" stroke="#DDDDDD" stroke-width="1"/>
<rect x="323.0" y="441.4" width="44" height="44" rx="5" fill="#F3F3F3" stroke="#DDDDDD" stroke-width="1"/>
<rect x="367.0" y="437.0" width="44" height="44" rx="5" fill="#FFD78A" stroke="#C89B30" stroke-width="1"/>
<text x="389.0" y="459.0" text-anchor="middle" dominant-baseline="middle" font-size="10" fill="#5A3D00">▼ Adj</text>
<rect x="15" y="499" width="80" height="20" rx="9" fill="#27AE60"/>
<text x="55" y="509.0" text-anchor="middle" dominant-baseline="middle" font-size="11" font-weight="bold" fill="white">Nav</text>
<rect x="15.0" y="552.7" width="44" height="44" rx="5" fill="#E8E8E8" stroke="#AAAAAA" stroke-width="1"/>
<text x="37.0" y="574.7" text-anchor="middle" dominant-baseline="middle" font-size="10" fill="#333333">1</text>
<rect x="59.0" y="541.3" width="44" height="44" rx="5" fill="#E8E8E8" stroke="#AAAAAA" stroke-width="1"/>
<text x="81.0" y="563.3" text-anchor="middle" dominant-baseline="middle" font-size="10" fill="#333333">2</text>
<rect x="103.0" y="536.0" width="44" height="44" rx="5" fill="#E8E8E8" stroke="#AAAAAA" stroke-width="1"/>
<text x="125.0" y="558.0" text-anchor="middle" dominant-baseline="middle" font-size="10" fill="#333333">3</text>
<rect x="147.0" y="541.3" width="44" height="44" rx="5" fill="#E8E8E8" stroke="#AAAAAA" stroke-width="1"/>
<text x="169.0" y="563.3" text-anchor="middle" dominant-baseline="middle" font-size="10" fill="#333333">4</text>
<rect x="191.0" y="547.0" width="44" height="44" rx="5" fill="#E8E8E8" stroke="#AAAAAA" stroke-width="1"/>
<text x="213.0" y="569.0" text-anchor="middle" dominant-baseline="middle" font-size="10" fill="#333333">5</text>
<rect x="367.0" y="547.0" width="44" height="44" rx="5" fill="#E8E8E8" stroke="#AAAAAA" stroke-width="1"/>
<text x="389.0" y="569.0" text-anchor="middle" dominant-baseline="middle" font-size="10" fill="#333333">6</text>
<rect x="411.0" y="541.3" width="44" height="44" rx="5" fill="#E8E8E8" stroke="#AAAAAA" stroke-width="1"/>
<text x="433.0" y="563.3" text-anchor="middle" dominant-baseline="middle" font-size="10" fill="#333333">7</text>
<rect x="455.0" y="536.0" width="44" height="44" rx="5" fill="#E8E8E8" stroke="#AAAAAA" stroke-width="1"/>
<text x="477.0" y="558.0" text-anchor="middle" dominant-baseline="middle" font-size="10" fill="#333333">8</text>
<rect x="499.0" y="541.3" width="44" height="44" rx="5" fill="#E8E8E8" stroke="#AAAAAA" stroke-width="1"/>
<text x="521.0" y="563.3" text-anchor="middle" dominant-baseline="middle" font-size="10" fill="#333333">9</text>
<rect x="543.0" y="552.7" width="44" height="44" rx="5" fill="#E8E8E8" stroke="#AAAAAA" stroke-width="1"/>
<text x="565.0" y="574.7" text-anchor="middle" dominant-baseline="middle" font-size="10" fill="#333333">0</text>
<rect x="15.0" y="596.7" width="44" height="44" rx="5" fill="#E8E8E8" stroke="#AAAAAA" stroke-width="1"/>
<text x="37.0" y="618.7" text-anchor="middle" dominant-baseline="middle" font-size="10" fill="#333333">⇧</text>
<rect x="59.0" y="585.3" width="44" height="44" rx="5" fill="#E8E8E8" stroke="#AAAAAA" stroke-width="1"/>
<text x="81.0" y="607.3" text-anchor="middle" dominant-baseline="middle" font-size="10" fill="#333333">⌃</text>
<rect x="103.0" y="580.0" width="44" height="44" rx="5" fill="#E8E8E8" stroke="#AAAAAA" stroke-width="1"/>
<text x="125.0" y="602.0" text-anchor="middle" dominant-baseline="middle" font-size="10" fill="#333333">⌘</text>
<rect x="147.0" y="585.3" width="44" height="44" rx="5" fill="#E8E8E8" stroke="#AAAAAA" stroke-width="1"/>
<text x="169.0" y="607.3" text-anchor="middle" dominant-baseline="middle" font-size="10" fill="#333333">⌥</text>
<rect x="191.0" y="591.0" width="44" height="44" rx="5" fill="#E8E8E8" stroke="#AAAAAA" stroke-width="1"/>
<text x="213.0" y="613.0" text-anchor="middle" dominant-baseline="middle" font-size="10" fill="#333333">6</text>
<rect x="367.0" y="591.0" width="44" height="44" rx="5" fill="#B8D4F8" stroke="#6699CC" stroke-width="1"/>
<text x="389.0" y="613.0" text-anchor="middle" dominant-baseline="middle" font-size="10" fill="#1A3A6A">←</text>
<rect x="411.0" y="585.3" width="44" height="44" rx="5" fill="#C2D9F5" stroke="#7AABDE" stroke-width="1"/>
<text x="433.0" y="602.9" text-anchor="middle" dominant-baseline="middle" font-size="10" fill="#1A3A5C">↓</text>
<text x="433.0" y="617.0" text-anchor="middle" dominant-baseline="middle" font-size="8" fill="#1A3A5C" opacity="0.7">⌥ hold</text>
<rect x="455.0" y="580.0" width="44" height="44" rx="5" fill="#C2D9F5" stroke="#7AABDE" stroke-width="1"/>
<text x="477.0" y="597.6" text-anchor="middle" dominant-baseline="middle" font-size="10" fill="#1A3A5C">↑</text>
<text x="477.0" y="611.7" text-anchor="middle" dominant-baseline="middle" font-size="8" fill="#1A3A5C" opacity="0.7">⌘ hold</text>
<rect x="499.0" y="585.3" width="44" height="44" rx="5" fill="#C2D9F5" stroke="#7AABDE" stroke-width="1"/>
<text x="521.0" y="602.9" text-anchor="middle" dominant-baseline="middle" font-size="10" fill="#1A3A5C">→</text>
<text x="521.0" y="617.0" text-anchor="middle" dominant-baseline="middle" font-size="8" fill="#1A3A5C" opacity="0.7">⌃ hold</text>
<rect x="543.0" y="596.7" width="44" height="44" rx="5" fill="#E8E8E8" stroke="#AAAAAA" stroke-width="1"/>
<text x="565.0" y="618.7" text-anchor="middle" dominant-baseline="middle" font-size="10" fill="#333333">⇧</text>
<rect x="15.0" y="640.7" width="44" height="44" rx="5" fill="#E8E8E8" stroke="#AAAAAA" stroke-width="1"/>
<text x="37.0" y="662.7" text-anchor="middle" dominant-baseline="middle" font-size="10" fill="#333333">`</text>
<rect x="59.0" y="629.3" width="44" height="44" rx="5" fill="#F3F3F3" stroke="#DDDDDD" stroke-width="1"/>
<rect x="103.0" y="624.0" width="44" height="44" rx="5" fill="#F3F3F3" stroke="#DDDDDD" stroke-width="1"/>
<rect x="147.0" y="629.3" width="44" height="44" rx="5" fill="#E8E8E8" stroke="#AAAAAA" stroke-width="1"/>
<text x="169.0" y="651.3" text-anchor="middle" dominant-baseline="middle" font-size="10" fill="#333333">Del</text>
<rect x="191.0" y="635.0" width="44" height="44" rx="5" fill="#F3F3F3" stroke="#DDDDDD" stroke-width="1"/>
<rect x="367.0" y="635.0" width="44" height="44" rx="5" fill="#A8DFA8" stroke="#5A9E5A" stroke-width="1"/>
<text x="389.0" y="657.0" text-anchor="middle" dominant-baseline="middle" font-size="10" fill="#1A4A1A">Boot</text>
<rect x="411.0" y="629.3" width="44" height="44" rx="5" fill="#F3F3F3" stroke="#DDDDDD" stroke-width="1"/>
<rect x="455.0" y="624.0" width="44" height="44" rx="5" fill="#F3F3F3" stroke="#DDDDDD" stroke-width="1"/>
<rect x="499.0" y="629.3" width="44" height="44" rx="5" fill="#F3F3F3" stroke="#DDDDDD" stroke-width="1"/>
<rect x="543.0" y="640.7" width="44" height="44" rx="5" fill="#F3F3F3" stroke="#DDDDDD" stroke-width="1"/>
<rect x="191.0" y="679.0" width="44" height="44" rx="5" fill="#FFD78A" stroke="#C89B30" stroke-width="1"/>
<text x="213.0" y="701.0" text-anchor="middle" dominant-baseline="middle" font-size="10" fill="#5A3D00">▼ Adj</text>
<rect x="235.0" y="683.4" width="44" height="44" rx="5" fill="#F3F3F3" stroke="#DDDDDD" stroke-width="1"/>
<rect x="323.0" y="683.4" width="44" height="44" rx="5" fill="#F3F3F3" stroke="#DDDDDD" stroke-width="1"/>
<rect x="367.0" y="679.0" width="44" height="44" rx="5" fill="#F3F3F3" stroke="#DDDDDD" stroke-width="1"/>
<rect x="15" y="741" width="80" height="20" rx="9" fill="#8E44AD"/>
<text x="55" y="751.0" text-anchor="middle" dominant-baseline="middle" font-size="11" font-weight="bold" fill="white">Adjust</text>
<rect x="15.0" y="794.7" width="44" height="44" rx="5" fill="#E8E8E8" stroke="#AAAAAA" stroke-width="1"/>
<text x="37.0" y="816.7" text-anchor="middle" dominant-baseline="middle" font-size="10" fill="#333333">F1</text>
<rect x="59.0" y="783.3" width="44" height="44" rx="5" fill="#E8E8E8" stroke="#AAAAAA" stroke-width="1"/>
<text x="81.0" y="805.3" text-anchor="middle" dominant-baseline="middle" font-size="10" fill="#333333">F2</text>
<rect x="103.0" y="778.0" width="44" height="44" rx="5" fill="#E8E8E8" stroke="#AAAAAA" stroke-width="1"/>
<text x="125.0" y="800.0" text-anchor="middle" dominant-baseline="middle" font-size="10" fill="#333333">F3</text>
<rect x="147.0" y="783.3" width="44" height="44" rx="5" fill="#E8E8E8" stroke="#AAAAAA" stroke-width="1"/>
<text x="169.0" y="805.3" text-anchor="middle" dominant-baseline="middle" font-size="10" fill="#333333">F4</text>
<rect x="191.0" y="789.0" width="44" height="44" rx="5" fill="#F3F3F3" stroke="#DDDDDD" stroke-width="1"/>
<rect x="367.0" y="789.0" width="44" height="44" rx="5" fill="#F3F3F3" stroke="#DDDDDD" stroke-width="1"/>
<rect x="411.0" y="783.3" width="44" height="44" rx="5" fill="#F3F3F3" stroke="#DDDDDD" stroke-width="1"/>
<rect x="455.0" y="778.0" width="44" height="44" rx="5" fill="#F3F3F3" stroke="#DDDDDD" stroke-width="1"/>
<rect x="499.0" y="783.3" width="44" height="44" rx="5" fill="#F3F3F3" stroke="#DDDDDD" stroke-width="1"/>
<rect x="543.0" y="794.7" width="44" height="44" rx="5" fill="#F3F3F3" stroke="#DDDDDD" stroke-width="1"/>
<rect x="15.0" y="838.7" width="44" height="44" rx="5" fill="#E8E8E8" stroke="#AAAAAA" stroke-width="1"/>
<text x="37.0" y="860.7" text-anchor="middle" dominant-baseline="middle" font-size="10" fill="#333333">F5</text>
<rect x="59.0" y="827.3" width="44" height="44" rx="5" fill="#E8E8E8" stroke="#AAAAAA" stroke-width="1"/>
<text x="81.0" y="849.3" text-anchor="middle" dominant-baseline="middle" font-size="10" fill="#333333">F6</text>
<rect x="103.0" y="822.0" width="44" height="44" rx="5" fill="#E8E8E8" stroke="#AAAAAA" stroke-width="1"/>
<text x="125.0" y="844.0" text-anchor="middle" dominant-baseline="middle" font-size="10" fill="#333333">F7</text>
<rect x="147.0" y="827.3" width="44" height="44" rx="5" fill="#E8E8E8" stroke="#AAAAAA" stroke-width="1"/>
<text x="169.0" y="849.3" text-anchor="middle" dominant-baseline="middle" font-size="10" fill="#333333">F8</text>
<rect x="191.0" y="833.0" width="44" height="44" rx="5" fill="#F3F3F3" stroke="#DDDDDD" stroke-width="1"/>
<rect x="367.0" y="833.0" width="44" height="44" rx="5" fill="#F3F3F3" stroke="#DDDDDD" stroke-width="1"/>
<rect x="411.0" y="827.3" width="44" height="44" rx="5" fill="#DDD0F0" stroke="#9980CC" stroke-width="1"/>
<text x="433.0" y="849.3" text-anchor="middle" dominant-baseline="middle" font-size="10" fill="#2D1860">Vol−</text>
<rect x="455.0" y="822.0" width="44" height="44" rx="5" fill="#DDD0F0" stroke="#9980CC" stroke-width="1"/>
<text x="477.0" y="844.0" text-anchor="middle" dominant-baseline="middle" font-size="10" fill="#2D1860">Mute</text>
<rect x="499.0" y="827.3" width="44" height="44" rx="5" fill="#DDD0F0" stroke="#9980CC" stroke-width="1"/>
<text x="521.0" y="849.3" text-anchor="middle" dominant-baseline="middle" font-size="10" fill="#2D1860">Vol+</text>
<rect x="543.0" y="838.7" width="44" height="44" rx="5" fill="#F3F3F3" stroke="#DDDDDD" stroke-width="1"/>
<rect x="15.0" y="882.7" width="44" height="44" rx="5" fill="#E8E8E8" stroke="#AAAAAA" stroke-width="1"/>
<text x="37.0" y="904.7" text-anchor="middle" dominant-baseline="middle" font-size="10" fill="#333333">F9</text>
<rect x="59.0" y="871.3" width="44" height="44" rx="5" fill="#E8E8E8" stroke="#AAAAAA" stroke-width="1"/>
<text x="81.0" y="893.3" text-anchor="middle" dominant-baseline="middle" font-size="10" fill="#333333">F10</text>
<rect x="103.0" y="866.0" width="44" height="44" rx="5" fill="#E8E8E8" stroke="#AAAAAA" stroke-width="1"/>
<text x="125.0" y="888.0" text-anchor="middle" dominant-baseline="middle" font-size="10" fill="#333333">F11</text>
<rect x="147.0" y="871.3" width="44" height="44" rx="5" fill="#E8E8E8" stroke="#AAAAAA" stroke-width="1"/>
<text x="169.0" y="893.3" text-anchor="middle" dominant-baseline="middle" font-size="10" fill="#333333">F12</text>
<rect x="191.0" y="877.0" width="44" height="44" rx="5" fill="#F3F3F3" stroke="#DDDDDD" stroke-width="1"/>
<rect x="367.0" y="877.0" width="44" height="44" rx="5" fill="#F5C0C0" stroke="#CC6666" stroke-width="1"/>
<text x="389.0" y="899.0" text-anchor="middle" dominant-baseline="middle" font-size="10" fill="#500000">BT 0</text>
<rect x="411.0" y="871.3" width="44" height="44" rx="5" fill="#DDD0F0" stroke="#9980CC" stroke-width="1"/>
<text x="433.0" y="893.3" text-anchor="middle" dominant-baseline="middle" font-size="10" fill="#2D1860">⏮</text>
<rect x="455.0" y="866.0" width="44" height="44" rx="5" fill="#DDD0F0" stroke="#9980CC" stroke-width="1"/>
<text x="477.0" y="888.0" text-anchor="middle" dominant-baseline="middle" font-size="10" fill="#2D1860">⏯</text>
<rect x="499.0" y="871.3" width="44" height="44" rx="5" fill="#DDD0F0" stroke="#9980CC" stroke-width="1"/>
<text x="521.0" y="893.3" text-anchor="middle" dominant-baseline="middle" font-size="10" fill="#2D1860">⏭</text>
<rect x="543.0" y="882.7" width="44" height="44" rx="5" fill="#F5C0C0" stroke="#CC6666" stroke-width="1"/>
<text x="565.0" y="904.7" text-anchor="middle" dominant-baseline="middle" font-size="10" fill="#500000">BT CLR</text>
<rect x="191.0" y="921.0" width="44" height="44" rx="5" fill="#F3F3F3" stroke="#DDDDDD" stroke-width="1"/>
<rect x="235.0" y="925.4" width="44" height="44" rx="5" fill="#F3F3F3" stroke="#DDDDDD" stroke-width="1"/>
<rect x="323.0" y="925.4" width="44" height="44" rx="5" fill="#F3F3F3" stroke="#DDDDDD" stroke-width="1"/>
<rect x="367.0" y="921.0" width="44" height="44" rx="5" fill="#F3F3F3" stroke="#DDDDDD" stroke-width="1"/>
</svg>